<svg xmlns="http://www.w3.org/2000/svg" viewBox="0 0 720 300" role="img" aria-labelledby="title desc">
  <title id="title">ScanVX Solutions</title>
  <desc id="desc">ScanVX Solutions logo with blue technology ring, navy wordmark and red X.</desc>

  <defs>
    <linearGradient id="blue" x1="0" y1="0" x2="1" y2="1">
      <stop offset="0" stop-color="#1297d4"/>
      <stop offset="1" stop-color="#0875c9"/>
    </linearGradient>
  </defs>

  <!-- Technology ring and scan/check mark -->
  <path d="M195 104C224 31 303 2 380 26C411 36 438 54 461 79L438 100C416 77 390 62 361 55C300 39 239 64 214 114Z" fill="url(#blue)"/>
  <path d="M215 196C238 241 285 267 335 267C384 267 428 244 453 205L474 221C445 270 393 299 334 299C271 299 216 267 189 214Z" fill="url(#blue)"/>
  <path d="M391 151L461 66L483 83L406 181L383 181Z" fill="url(#blue)"/>

  <!-- Circuit details -->
  <g fill="none" stroke="#0b8fd2" stroke-width="5" stroke-linecap="round" stroke-linejoin="round">
    <path d="M203 116H257L275 104H328"/>
    <path d="M198 137H246L264 124H307"/>
    <path d="M194 158H234L251 145H284"/>
  </g>
  <g fill="#0b8fd2">
    <circle cx="328" cy="104" r="7"/><circle cx="307" cy="124" r="7"/><circle cx="284" cy="145" r="7"/>
    <rect x="346" y="91" width="10" height="10"/><rect x="366" y="104" width="8" height="8"/><rect x="385" y="92" width="9" height="9"/><rect x="402" y="106" width="8" height="8"/>
  </g>

  <!-- Wordmark -->
  <g aria-label="SCANVX">
    <text x="22" y="205" fill="#07172f" font-family="Arial Black, Montserrat, Arial, sans-serif" font-size="112" font-weight="900" letter-spacing="-8">SCANV</text>
    <path d="M579 120H617L646 157L674 120H713L665 178L718 241H679L646 199L612 241H574L626 178Z" fill="#f20d1c"/>
    <path d="M616 226L701 135L711 144L630 237Z" fill="#f20d1c"/>
  </g>

  <!-- Stylised A insert -->
  <path d="M273 192L287 171L301 192Z" fill="#138fd0"/>

  <text x="30" y="265" fill="#68707b" font-family="Arial, sans-serif" font-size="35" font-weight="600" letter-spacing="18">SOLUTIONS</text>
</svg>
